<?xml version="1.0" standalone="no"?>
<!DOCTYPE svg PUBLIC "-//W3C//DTD SVG 20010904//EN"
 "http://www.w3.org/TR/2001/REC-SVG-20010904/DTD/svg10.dtd">
<svg version="1.0" xmlns="http://www.w3.org/2000/svg"
 width="2em" height="2em" viewBox="0 0 512.000000 512.000000"
 preserveAspectRatio="xMidYMid meet">

<g transform="translate(0.000000,512.000000) scale(0.100000,-0.100000)"
fill="#ffffff" stroke="none">
<path d="M1713 4701 c-73 -25 -136 -80 -170 -149 l-28 -57 -3 -457 -3 -458
-282 -231 c-155 -127 -287 -241 -294 -252 -9 -17 -12 -163 -13 -589 l0 -568
-235 0 c-253 0 -276 -4 -301 -51 -26 -52 -12 -104 36 -132 24 -15 62 -17 264
-17 l236 0 0 -539 c0 -633 -3 -609 95 -707 104 -104 -102 -95 2025 -92 l1855
3 47 23 c58 29 121 92 150 151 l23 46 3 1225 c2 1153 1 1227 -15 1252 -10 15
-143 129 -295 253 l-278 226 0 444 c0 424 -1 447 -21 499 -25 67 -91 139 -157
169 -46 21 -59 22 -496 25 -485 3 -495 2 -521 -49 -19 -35 -19 -63 -1 -98 26
-50 35 -51 497 -51 l431 0 34 -34 34 -34 0 -909 -1 -908 -654 -497 -655 -497
-572 436 c-315 239 -610 463 -655 497 l-82 61 -1 909 0 908 34 34 34 34 431 0
c462 0 471 1 497 51 27 52 8 115 -41 137 -19 9 -145 12 -463 12 -393 -1 -442
-2 -489 -19z m-208 -1899 c-6 -6 -318 230 -321 244 -2 5 70 68 159 140 l162
131 3 -255 c1 -140 0 -257 -3 -260z m3219 363 c74 -60 134 -114 132 -120 -3
-11 -307 -245 -318 -245 -5 0 -8 117 -8 261 l0 260 29 -23 c16 -13 90 -72 165
-133z m-3014 -778 c311 -236 571 -435 577 -441 10 -9 -121 -146 -577 -601
l-590 -590 0 1038 c0 828 3 1037 13 1030 6 -4 266 -200 577 -436z m3208 -1106
l-3 -521 -588 588 -588 588 588 447 588 447 3 -514 c1 -283 1 -749 0 -1035z
m-2248 375 c102 -77 213 -162 248 -188 49 -37 71 -48 100 -48 44 0 29 -10 312
205 124 94 230 174 236 178 5 3 282 -266 615 -599 l604 -604 -1765 0 -1765 0
604 604 c333 333 610 602 615 599 6 -4 94 -70 196 -147z"/>
<path d="M2971 4706 c-87 -48 -50 -186 49 -186 51 0 100 49 100 99 0 75 -83
124 -149 87z"/>
<path d="M2860 4065 c-256 -54 -462 -218 -574 -456 -57 -120 -71 -186 -71
-339 0 -153 14 -220 70 -337 104 -222 287 -377 522 -445 112 -32 314 -32 426
0 279 80 489 290 569 569 32 112 32 314 0 426 -80 279 -301 498 -577 573 -82
22 -282 27 -365 9z m296 -200 c382 -90 583 -510 413 -859 -148 -304 -508 -431
-811 -286 -298 142 -430 499 -295 801 74 165 238 301 415 344 76 18 203 18
278 0z"/>
<path d="M3104 3388 l-134 -132 -69 67 c-58 56 -75 67 -104 67 -40 0 -84 -31
-98 -68 -17 -45 6 -84 120 -195 104 -103 110 -107 151 -107 43 0 46 2 224 180
l181 180 0 46 c0 60 -35 94 -97 94 -40 0 -47 -6 -174 -132z"/>
<path d="M51 1286 c-66 -37 -67 -131 -1 -169 24 -15 66 -17 320 -17 232 0 297
3 319 14 66 35 66 137 0 172 -39 20 -602 20 -638 0z"/>
</g>
</svg>
