<?xml version="1.0" standalone="no"?>
<!DOCTYPE svg PUBLIC "-//W3C//DTD SVG 20010904//EN"
 "http://www.w3.org/TR/2001/REC-SVG-20010904/DTD/svg10.dtd">
<svg version="1.0" xmlns="http://www.w3.org/2000/svg"
 width="512.000000pt" height="512.000000pt" viewBox="0 0 512.000000 512.000000"
 preserveAspectRatio="xMidYMid meet">

 <defs>
  <linearGradient id="myGradient" x1="0%" y1="0%" x2="100%" y2="0%">
    <stop offset="0%" style="stop-color:rgb(0,200,0);stop-opacity:1" />
    <stop offset="100%" style="stop-color:rgb(0,255,0);stop-opacity:1" />
  </linearGradient>
</defs>

<g transform="translate(0.000000,512.000000) scale(0.100000,-0.100000)"
fill="url(#myGradient)" stroke="none">
<path d="M747 4469 c-162 -38 -297 -178 -337 -348 -24 -103 4 -245 68 -339 15
-22 363 -410 774 -862 l748 -822 2 -798 c3 -789 3 -799 24 -826 49 -67 130
-91 195 -60 19 9 221 166 449 349 299 239 420 342 432 367 16 32 18 77 18 502
l0 466 663 729 c364 401 707 778 761 838 110 122 151 194 169 300 29 171 -60
360 -214 452 -112 67 11 63 -1944 62 -1002 -1 -1786 -5 -1808 -10z"/>
</g>
</svg>
