<?xml version="1.0" standalone="no"?>
<!DOCTYPE svg PUBLIC "-//W3C//DTD SVG 20010904//EN"
 "http://www.w3.org/TR/2001/REC-SVG-20010904/DTD/svg10.dtd">
<svg version="1.0" xmlns="http://www.w3.org/2000/svg"
  width="2em"
  height="2em" 
  viewBox="0 0 512.000000 512.000000"
  preserveAspectRatio="xMidYMid meet">

<g transform="translate(0.000000,512.000000) scale(0.100000,-0.100000)"
fill="#ffffff" stroke="none">
<path d="M2370 5114 c-19 -2 -78 -9 -130 -15 -791 -90 -1522 -586 -1924 -1305
-146 -262 -252 -588 -297 -914 -18 -125 -18 -515 0 -640 105 -762 511 -1409
1146 -1826 840 -552 1956 -550 2797 4 1266 835 1539 2571 591 3747 -409 507
-974 829 -1633 930 -100 15 -472 28 -550 19z m391 -404 c160 -16 310 -48 473
-101 488 -160 893 -481 1171 -929 237 -383 349 -872 304 -1326 -67 -678 -442
-1274 -1029 -1639 -383 -237 -871 -349 -1326 -304 -854 84 -1578 664 -1843
1475 -148 452 -148 896 0 1348 123 377 353 720 649 969 449 378 1033 562 1601
507z"/>
<path d="M2383 4275 c-201 -36 -365 -124 -513 -274 -129 -130 -212 -278 -257
-457 -24 -95 -24 -333 0 -428 45 -179 128 -327 257 -457 177 -180 385 -273
635 -286 277 -14 519 81 720 282 137 137 216 276 262 461 24 95 24 333 0 428
-25 99 -72 210 -125 296 -62 102 -206 243 -311 308 -196 120 -445 168 -668
127z m273 -396 c98 -17 210 -78 288 -155 219 -220 219 -569 -1 -789 -219 -219
-568 -218 -788 3 -270 269 -194 722 148 891 118 58 225 73 353 50z"/>
<path d="M2320 2024 c-328 -41 -586 -152 -825 -355 -91 -76 -179 -174 -207
-227 -57 -112 25 -261 152 -278 85 -11 119 6 237 125 59 59 137 127 172 151
93 62 236 127 348 158 95 25 106 26 383 26 278 0 287 -1 385 -27 111 -30 252
-94 347 -158 35 -23 111 -90 170 -149 87 -88 114 -109 152 -120 122 -34 240
46 253 171 7 71 -8 106 -84 194 -155 179 -400 341 -637 419 -174 58 -249 68
-541 71 -148 2 -286 1 -305 -1z"/>
</g>
</svg>
