<?xml version="1.0" standalone="no"?>
<!DOCTYPE svg PUBLIC "-//W3C//DTD SVG 20010904//EN"
 "http://www.w3.org/TR/2001/REC-SVG-20010904/DTD/svg10.dtd">
<svg version="1.0" xmlns="http://www.w3.org/2000/svg"
 width="1em" height="1em" viewBox="0 0 512.000000 512.000000"
 preserveAspectRatio="xMidYMid meet">

<g transform="translate(0.000000,512.000000) scale(0.100000,-0.100000)"
fill="#ffffff" stroke="none">
<path d="M2350 4350 c-623 -77 -1256 -429 -1876 -1045 -378 -375 -474 -526
-474 -745 0 -219 96 -370 474 -745 630 -626 1268 -977 1901 -1046 131 -14 358
-7 495 16 517 85 1058 375 1591 852 256 228 535 537 594 657 84 171 84 361 0
532 -59 120 -338 429 -594 657 -534 478 -1067 763 -1591 852 -113 19 -414 28
-520 15z m504 -420 c577 -114 1223 -546 1768 -1182 131 -154 131 -222 0 -376
-419 -489 -915 -871 -1376 -1061 -264 -108 -444 -146 -691 -146 -190 1 -273
13 -468 71 -508 149 -1110 575 -1568 1111 -116 135 -134 182 -109 274 22 78
365 443 608 647 485 405 937 628 1392 686 85 11 338 -3 444 -24z"/>
<path d="M2387 3544 c-203 -37 -387 -133 -533 -279 -390 -390 -390 -1020 1
-1410 124 -125 298 -224 471 -267 125 -31 341 -32 464 -1 372 94 649 371 743
743 30 121 30 339 0 460 -101 399 -407 685 -808 755 -106 18 -233 18 -338 -1z
m317 -404 c113 -29 190 -73 276 -160 87 -86 131 -163 160 -276 36 -141 18
-294 -52 -427 -42 -81 -164 -203 -245 -245 -133 -70 -286 -88 -427 -52 -113
29 -190 73 -276 160 -87 86 -131 163 -160 276 -36 141 -18 294 52 427 42 81
164 203 245 245 133 70 286 88 427 52z"/>
</g>
</svg>
